<?xml version="1.0" encoding="utf-8"?>
<!-- Generator: Adobe Illustrator 22.1.0, SVG Export Plug-In . SVG Version: 6.00 Build 0)  -->
<svg version="1.1" id="Слой_1" xmlns="http://www.w3.org/2000/svg" xmlns:xlink="http://www.w3.org/1999/xlink" x="0px" y="0px"
	 viewBox="0 0 313.7 167.6" style="enable-background:new 0 0 313.7 167.6;" xml:space="preserve">
<style type="text/css">
	.st0{fill:url(#SVGID_1_);}
	.st1{fill:url(#SVGID_2_);}
	.st2{fill:url(#SVGID_3_);}
	.st3{fill:url(#SVGID_4_);}
</style>
<g>
	<linearGradient id="SVGID_1_" gradientUnits="userSpaceOnUse" x1="99.7701" y1="1.818989e-12" x2="99.7701" y2="167.5602">
		<stop  offset="0" style="stop-color:#FFE769"/>
		<stop  offset="0.2177" style="stop-color:#DBB35C"/>
		<stop  offset="0.7609" style="stop-color:#85353E"/>
		<stop  offset="1" style="stop-color:#620232"/>
	</linearGradient>
	<path class="st0" d="M174.6,153.8c-2.6,0-14.6,0-17.1,0c-3.1,0-14.6,0-17.5,0c-3,0-6.7,13.6-9.5,13.6c-2.9,0-5.6,0-8.3,0
		c-69.6,0.1-71.8,0.2-89.6-0.1c-15-0.2-20.3,0-28-9.3c-7.6-9.3,6.8-30.5,6.8-30.5L87.1,15.1c0,0,9.8-16.1,31.4-15.1s78.6,0,78.6,0"
		/>
	<linearGradient id="SVGID_2_" gradientUnits="userSpaceOnUse" x1="214.2646" y1="-3.265086e-10" x2="214.2646" y2="167.4507">
		<stop  offset="0" style="stop-color:#FFE769"/>
		<stop  offset="0.2177" style="stop-color:#DBB35C"/>
		<stop  offset="0.7609" style="stop-color:#85353E"/>
		<stop  offset="1" style="stop-color:#620232"/>
	</linearGradient>
	<path class="st1" d="M174.6,153.8c2.8,0,6.1,13.6,9.3,13.6c34.6,0,89.7,0.1,97.5,0c15-0.2,20.3,0,28-9.3c7.6-9.3-6.8-30.5-6.8-30.5
		L226.9,15.1c0,0-4.1-6.6-12.7-11.1c-4.8-2.5-11-4.3-18.8-4c-21.6,1-78.6,0-78.6,0"/>
</g>
<g>
	<linearGradient id="SVGID_3_" gradientUnits="userSpaceOnUse" x1="122.2813" y1="33.524" x2="122.2813" y2="133.9267">
		<stop  offset="0" style="stop-color:#FFE769"/>
		<stop  offset="0.2177" style="stop-color:#DBB35C"/>
		<stop  offset="0.7609" style="stop-color:#85353E"/>
		<stop  offset="1" style="stop-color:#620232"/>
	</linearGradient>
	<path class="st2" d="M167.1,125.7c-1.5,0-8.8,0-10.2,0c-1.9,0-8.8,0-10.5,0c-1.8,0-4,8.2-5.7,8.2c-1.7,0-3.4,0-4.9,0
		c-41.7,0.1-43,0.1-53.7,0c-9-0.1-12.2,0-16.8-5.6c-4.6-5.6,4.1-18.3,4.1-18.3l45.4-67.4c0,0,5.9-9.6,18.8-9c13,0.6,47.1,0,47.1,0"
		/>
	<linearGradient id="SVGID_4_" gradientUnits="userSpaceOnUse" x1="190.8869" y1="33.524" x2="190.8869" y2="133.8611">
		<stop  offset="0" style="stop-color:#FFE769"/>
		<stop  offset="0.2177" style="stop-color:#DBB35C"/>
		<stop  offset="0.7609" style="stop-color:#85353E"/>
		<stop  offset="1" style="stop-color:#620232"/>
	</linearGradient>
	<path class="st3" d="M167.1,125.7c1.7,0,3.6,8.2,5.6,8.2c20.7,0,53.8,0,58.4,0c9-0.1,12.2,0,16.8-5.6c4.6-5.6-4.1-18.3-4.1-18.3
		l-45.4-67.4c0,0-2.4-4-7.6-6.7c-2.9-1.5-6.6-2.6-11.2-2.4c-13,0.6-47.1,0-47.1,0"/>
</g>
</svg>
