<?xml version="1.0" encoding="utf-8"?>
<!-- Generator: Adobe Illustrator 22.1.0, SVG Export Plug-In . SVG Version: 6.00 Build 0)  -->
<svg version="1.1" id="Слой_1" xmlns="http://www.w3.org/2000/svg" xmlns:xlink="http://www.w3.org/1999/xlink" x="0px" y="0px"
	 viewBox="0 0 226.3 126.5" style="enable-background:new 0 0 226.3 126.5;" xml:space="preserve">
<style type="text/css">
	.st0{enable-background:new    ;}
	.st1{fill:#FFE16C;}
	.st2{fill:none;}
	.st3{fill:url(#SVGID_1_);}
	.st4{fill:url(#SVGID_2_);}
	.st5{fill:url(#SVGID_3_);}
	.st6{fill:url(#SVGID_4_);}
	.st7{opacity:0.18;}
	.st8{fill:url(#SVGID_5_);}
	.st9{fill:url(#SVGID_6_);}
	.st10{filter:url(#Adobe_OpacityMaskFilter);}
	.st11{opacity:0.75;mask:url(#SVGID_7_);}
	.st12{fill:#FFFFFF;}
	.st13{filter:url(#Adobe_OpacityMaskFilter_1_);}
	.st14{opacity:0.82;mask:url(#SVGID_8_);}
	.st15{fill:#1D585B;}
	.st16{filter:url(#Adobe_OpacityMaskFilter_2_);}
	.st17{opacity:0.75;}
</style>
<text transform="matrix(1 0 0 1 -182.4349 324.3629)" class="st1" style="font-family:'NK117'; font-size:119px;">2020</text>
<polygon class="st2" points="-151.4,320 -120.2,320 -120.2,320 "/>
<g>
	<g>
		
			<image style="overflow:visible;" width="756" height="652" xlink:href="66F79AF136444759.png"  transform="matrix(1 0 0 1 -263.668 -263.276)">
		</image>
		<g>
			<g>
				<linearGradient id="SVGID_1_" gradientUnits="userSpaceOnUse" x1="71.4687" y1="1.2853" x2="71.4687" y2="124.2701">
					<stop  offset="0" style="stop-color:#FFE769"/>
					<stop  offset="0.2177" style="stop-color:#DBB35C"/>
					<stop  offset="0.7609" style="stop-color:#85353E"/>
					<stop  offset="1" style="stop-color:#620232"/>
				</linearGradient>
				<path class="st3" d="M126.4,114.2c-1.9,0-10.7,0-12.5,0c-2.3,0-10.7,0-12.9,0c-2.2,0-4.9,10-7,10c-2.1,0-4.1,0-6.1,0
					c-51.1,0.1-52.7,0.2-65.8-0.1c-11-0.2-14.9,0-20.5-6.8s5-22.4,5-22.4l55.6-82.5c0,0,7.2-11.8,23.1-11.1s57.7,0,57.7,0"/>
				<linearGradient id="SVGID_2_" gradientUnits="userSpaceOnUse" x1="155.5047" y1="1.2853" x2="155.5047" y2="124.1897">
					<stop  offset="0" style="stop-color:#FFE769"/>
					<stop  offset="0.2177" style="stop-color:#DBB35C"/>
					<stop  offset="0.7609" style="stop-color:#85353E"/>
					<stop  offset="1" style="stop-color:#620232"/>
				</linearGradient>
				<path class="st4" d="M126.4,114.2c2.1,0,4.5,10,6.8,10c25.4,0,65.9,0.1,71.6,0c11-0.2,14.9,0,20.5-6.8c5.6-6.8-5-22.4-5-22.4
					l-55.6-82.5c0,0-7.2-11.8-23.1-11.1S84,1.3,84,1.3"/>
			</g>
		</g>
	</g>
	<g>
		<linearGradient id="SVGID_3_" gradientUnits="userSpaceOnUse" x1="88.3689" y1="22.2237" x2="88.3689" y2="97.3234">
			<stop  offset="0" style="stop-color:#FFE769"/>
			<stop  offset="0.2177" style="stop-color:#DBB35C"/>
			<stop  offset="0.7609" style="stop-color:#85353E"/>
			<stop  offset="1" style="stop-color:#620232"/>
		</linearGradient>
		<path class="st5" d="M121.9,91.2c-1.2,0-6.5,0-7.6,0c-1.4,0-6.5,0-7.9,0c-1.4,0-3,6.1-4.3,6.1c-1.3,0-2.5,0-3.7,0
			c-31.2,0.1-32.2,0.1-40.2,0c-6.7-0.1-9.1,0-12.5-4.2c-3.4-4.2,3-13.7,3-13.7L82.7,29c0,0,4.4-7.2,14.1-6.8s35.2,0,35.2,0"/>
		<linearGradient id="SVGID_4_" gradientUnits="userSpaceOnUse" x1="139.6848" y1="22.2237" x2="139.6848" y2="97.2743">
			<stop  offset="0" style="stop-color:#FFE769"/>
			<stop  offset="0.2177" style="stop-color:#DBB35C"/>
			<stop  offset="0.7609" style="stop-color:#85353E"/>
			<stop  offset="1" style="stop-color:#620232"/>
		</linearGradient>
		<path class="st6" d="M121.9,91.2c1.3,0,2.7,6.1,4.2,6.1c15.5,0,40.2,0,43.7,0c6.7-0.1,9.1,0,12.5-4.2s-3-13.7-3-13.7L145.4,29
			c0,0-1.8-3-5.7-5c-2.2-1.1-4.9-1.9-8.4-1.8c-9.7,0.4-35.2,0-35.2,0"/>
	</g>
	<g class="st7">
		<g>
			<g>
				<g>
					<linearGradient id="SVGID_5_" gradientUnits="userSpaceOnUse" x1="88.8878" y1="22.7224" x2="88.8878" y2="97.7505">
						<stop  offset="0" style="stop-color:#FFE769"/>
						<stop  offset="0.2177" style="stop-color:#DBB35C"/>
						<stop  offset="0.7609" style="stop-color:#85353E"/>
						<stop  offset="1" style="stop-color:#620232"/>
					</linearGradient>
					<path class="st8" d="M122,91.6c-1.2,0-6.5,0-7.6,0c-1.4,0-6.5,0-7.8,0c-1.4,0-3,6.1-4.3,6.1c-1.3,0-2.5,0-3.7,0
						c-31.2,0.1-32.2,0.1-40.1,0c-6.7-0.1-9.1,0-12.5-4.2S132,22.7,132,22.7"/>
					<linearGradient id="SVGID_6_" gradientUnits="userSpaceOnUse" x1="152.6397" y1="22.703" x2="152.6397" y2="97.7015">
						<stop  offset="0" style="stop-color:#FFE769"/>
						<stop  offset="0.2177" style="stop-color:#DBB35C"/>
						<stop  offset="0.7609" style="stop-color:#85353E"/>
						<stop  offset="1" style="stop-color:#620232"/>
					</linearGradient>
					<path class="st9" d="M122,91.6c1.3,0,2.7,6.1,4.2,6.1c15.5,0,40.2,0,43.7,0c6.7-0.1,9.1,0,12.5-4.2c3.4-4.2-3-13.7-3-13.7
						l-33.9-50.4c0,0-1.8-3-5.7-5c-2.2-1.1-4.9-1.9-8.4-1.8"/>
				</g>
			</g>
			<defs>
				<filter id="Adobe_OpacityMaskFilter" filterUnits="userSpaceOnUse" x="45.7" y="22.7" width="137.6" height="75">
					
						<feColorMatrix  type="matrix" values="-1 0 0 0 1  0 -1 0 0 1  0 0 -1 0 1  0 0 0 1 0" color-interpolation-filters="sRGB" result="source"/>
				</filter>
			</defs>
			<mask maskUnits="userSpaceOnUse" x="45.7" y="22.7" width="137.6" height="75" id="SVGID_7_">
				<g class="st10">
					
						<image style="overflow:visible;" width="143" height="80" xlink:href="66F79AF13644475B.jpg"  transform="matrix(1 0 0 1 42.9541 20.3461)">
					</image>
				</g>
			</mask>
			<g class="st11">
				<g>
					<path class="st12" d="M122,91.6c-1.2,0-6.5,0-7.6,0c-1.4,0-6.5,0-7.8,0c-1.4,0-3,6.1-4.3,6.1c-1.3,0-2.5,0-3.7,0
						c-31.2,0.1-32.2,0.1-40.1,0c-6.7-0.1-9.1,0-12.5-4.2S132,22.7,132,22.7"/>
					<path class="st12" d="M122,91.6c1.3,0,2.7,6.1,4.2,6.1c15.5,0,40.2,0,43.7,0c6.7-0.1,9.1,0,12.5-4.2c3.4-4.2-3-13.7-3-13.7
						l-33.9-50.4c0,0-1.8-3-5.7-5c-2.2-1.1-4.9-1.9-8.4-1.8"/>
				</g>
			</g>
		</g>
		<defs>
			<filter id="Adobe_OpacityMaskFilter_1_" filterUnits="userSpaceOnUse" x="45.7" y="22.7" width="137.6" height="75">
				
					<feColorMatrix  type="matrix" values="-1 0 0 0 1  0 -1 0 0 1  0 0 -1 0 1  0 0 0 1 0" color-interpolation-filters="sRGB" result="source"/>
			</filter>
		</defs>
		<mask maskUnits="userSpaceOnUse" x="45.7" y="22.7" width="137.6" height="75" id="SVGID_8_">
			<g class="st13">
				
					<image style="overflow:visible;" width="143" height="80" xlink:href="66F79AF136444759.jpg"  transform="matrix(1 0 0 1 42.9541 20.3461)">
				</image>
			</g>
		</mask>
		<g class="st14">
			<g>
				<g>
					<path class="st15" d="M122,91.6c-1.2,0-6.5,0-7.6,0c-1.4,0-6.5,0-7.8,0c-1.4,0-3,6.1-4.3,6.1c-1.3,0-2.5,0-3.7,0
						c-31.2,0.1-32.2,0.1-40.1,0c-6.7-0.1-9.1,0-12.5-4.2S132,22.7,132,22.7"/>
					<path class="st15" d="M122,91.6c1.3,0,2.7,6.1,4.2,6.1c15.5,0,40.2,0,43.7,0c6.7-0.1,9.1,0,12.5-4.2c3.4-4.2-3-13.7-3-13.7
						l-33.9-50.4c0,0-1.8-3-5.7-5c-2.2-1.1-4.9-1.9-8.4-1.8"/>
				</g>
			</g>
			<defs>
				<filter id="Adobe_OpacityMaskFilter_2_" filterUnits="userSpaceOnUse" x="45.7" y="22.7" width="137.6" height="75">
					
						<feColorMatrix  type="matrix" values="-1 0 0 0 1  0 -1 0 0 1  0 0 -1 0 1  0 0 0 1 0" color-interpolation-filters="sRGB" result="source"/>
				</filter>
			</defs>
			<mask maskUnits="userSpaceOnUse" x="45.7" y="22.7" width="137.6" height="75" id="SVGID_8_">
				<g class="st16">
					
						<image style="overflow:visible;" width="143" height="80" xlink:href="66F79AF13644475F.jpg"  transform="matrix(1 0 0 1 42.9541 20.3461)">
					</image>
				</g>
			</mask>
			<g class="st17">
				<g>
					<path class="st15" d="M122,91.6c-1.2,0-6.5,0-7.6,0c-1.4,0-6.5,0-7.8,0c-1.4,0-3,6.1-4.3,6.1c-1.3,0-2.5,0-3.7,0
						c-31.2,0.1-32.2,0.1-40.1,0c-6.7-0.1-9.1,0-12.5-4.2S132,22.7,132,22.7"/>
					<path class="st15" d="M122,91.6c1.3,0,2.7,6.1,4.2,6.1c15.5,0,40.2,0,43.7,0c6.7-0.1,9.1,0,12.5-4.2c3.4-4.2-3-13.7-3-13.7
						l-33.9-50.4c0,0-1.8-3-5.7-5c-2.2-1.1-4.9-1.9-8.4-1.8"/>
				</g>
			</g>
		</g>
	</g>
</g>
<g id="xYOZDc.tif">
	
		<image style="overflow:visible;" width="946" height="514" id="Layer_1" xlink:href="66F79AF13644475A.png"  transform="matrix(0.24 0 0 0.24 -113.52 -399.7524)">
	</image>
</g>
</svg>
